<svg id="Layer_1" data-name="Layer 1" xmlns="http://www.w3.org/2000/svg" viewBox="0 0 767 767"><defs><style>.cls-1{fill:#023e8a;}.cls-2{fill:#0057c4;}</style></defs><path class="cls-1" d="M-8-412c211.91,2.22,383,173.07,383,383.5S203.91,352.78-8,355L265.93-28.5Z" transform="translate(392 412)"/><path class="cls-2" d="M-12.18-412C160-409.31,299-238.65,299-28.5S160,352.31-12.18,355l-4.08,0C-223.77,355-392,183.3-392-28.5S-223.77-412-16.26-412ZM172-28.5c0-106.11-84.28-192.14-188.25-192.14s-188.25,86-188.25,192.14,84.28,192.14,188.25,192.14S172,77.61,172-28.5Z" transform="translate(392 412)"/></svg>